PathFileType	4	(X/Y/Z)	D:\Share\Shared_Data\Ergonomics\Sit To Stand Pertubation\S0\Perturbed STS.trc
DataRate	CameraRate	NumFrames	NumMarkers	Units	OrigDataRate	OrigDataStartFrame	OrigNumFrames	
100	100	9	18	m	100	8806	221
Frame#	Time	R_Heel			R_ASIS			R_Pelvis			V_Sacral			L_Pelvis			L_ASIS			Clavical			R_Acromium			L_Acromium			Sternum			Torso			R_Thigh_Med			R_Thigh_Lat			R_Thigh			R_Shank_Med			R_Shank_Lat			R_Shank			R_Toe			
		X1	Y1	Z1	X2	Y2	Z2	X3	Y3	Z3	X4	Y4	Z4	X5	Y5	Z5	X6	Y6	Z6	X7	Y7	Z7	X8	Y8	Z8	X9	Y9	Z9	X10	Y10	Z10	X11	Y11	Z11	X12	Y12	Z12	X13	Y13	Z13	X14	Y14	Z14	X15	Y15	Z15	X16	Y16	Z16	X17	Y17	Z17	X18	Y18	Z18	

8806	44.4	0.15882713	0.039830139	0.12046708	0.1916553	0.90413684	0.1472778	0.083453415	0.96310559	0.19841914	-0.051875851	0.99619098	-0.024594488	0.077557968	0.94831415	-0.21276067	0.18106917	0.88830188	-0.16479524	0.40572308	1.255088	-0.027126722	0.37607446	1.3594506	0.10176662	0.36278677	1.3618267	-0.17250481	0.38776501	1.1615549	-0.045688019	0.38349173	1.217239	-0.14518935	0.31549213	0.49143716	0.037331524	0.31452243	0.5088027	0.16993289	0.3267374	0.66300049	0.10242214	0.25625873	0.10037611	0.071362602	0.20324345	0.085042603	0.16397289	0.26532321	0.30910999	0.18332242	0.38318436	0.053192249	0.10585075
8807	44.41	0.15872711	0.039738377	0.12047122	0.19376357	0.90742859	0.14749037	0.085414261	0.96587018	0.19838846	-0.049515919	0.99870691	-0.024786703	0.080181313	0.95103735	-0.21279802	0.18367049	0.89143146	-0.16457391	0.40515436	1.261187	-0.027088251	0.37450061	1.3653065	0.10191046	0.36151117	1.3674279	-0.17273689	0.38789917	1.167488	-0.045609383	0.38327322	1.2230085	-0.14541937	0.31470749	0.49179709	0.037566719	0.31328375	0.50907535	0.17013574	0.32714459	0.6631366	0.10305074	0.25607327	0.10049914	0.071524521	0.20297653	0.085012909	0.16405655	0.26438275	0.30927679	0.18348415	0.3828858	0.053497013	0.10600397
8808	44.42	0.15862117	0.039647671	0.12046884	0.19595128	0.91070422	0.14768452	0.087418961	0.96856421	0.19831384	-0.047121826	1.0011404	-0.025005922	0.082867828	0.95371753	-0.21284882	0.18642258	0.89456915	-0.16439684	0.40453989	1.267264	-0.027046017	0.37284998	1.3711357	0.10204683	0.36018524	1.372995	-0.17296182	0.38800549	1.1734017	-0.045517742	0.38305374	1.2287572	-0.14563315	0.31394006	0.49214322	0.037783192	0.31204703	0.5093515	0.17031476	0.3275502	0.66325201	0.10365147	0.2558853	0.10062288	0.071687386	0.20269357	0.084983658	0.16413974	0.26342703	0.30945126	0.18363342	0.38256854	0.05382177	0.10616464
8809	44.43	0.15850928	0.039559563	0.12046014	0.19823306	0.91396631	0.14785191	0.089474228	0.97118341	0.19819873	-0.044693577	1.0034886	-0.025250315	0.085613716	0.95635297	-0.21291016	0.18932341	0.89771234	-0.16426373	0.40388126	1.2733114	-0.026998335	0.37111746	1.3769288	0.10217794	0.35880353	1.378521	-0.17317812	0.38808408	1.1792887	-0.045412121	0.3828345	1.2344763	-0.1458271	0.31316919	0.49246252	0.037978409	0.31081418	0.50963211	0.17046442	0.32795233	0.66334454	0.10421198	0.25569647	0.10074647	0.071848671	0.20239929	0.084955544	0.16422116	0.26245679	0.30963455	0.18376648	0.3822363	0.054160854	0.10633271
8810	44.44	0.15839294	0.039475338	0.12044521	0.20061694	0.9172193	0.14798465	0.091587646	0.97372144	0.19804901	-0.042230843	1.0057502	-0.025518707	0.088415321	0.95894135	-0.21298123	0.19236844	0.9008595	-0.16417015	0.40318048	1.2793206	-0.026943953	0.36930029	1.3826744	0.10230659	0.35736533	1.3839966	-0.17338664	0.3881344	1.185141	-0.045292175	0.38261447	1.2401561	-0.14599915	0.31238556	0.4927496	0.038148209	0.30958896	0.50991779	0.17057906	0.32835574	0.6634137	0.10471864	0.25550893	0.1008683	0.07200576	0.2021004	0.084929939	0.16429877	0.2614744	0.30982663	0.18387975	0.38189554	0.054507118	0.10650753
8811	44.45	0.15827483	0.039396038	0.12042407	0.20310237	0.9204668	0.14807637	0.093763763	0.97617279	0.19787108	-0.03973349	1.0079232	-0.025810217	0.091268913	0.96147974	-0.21306297	0.19554649	0.90400818	-0.16410974	0.40244016	1.2852821	-0.026882315	0.36739896	1.3883612	0.10243556	0.35587476	1.3894116	-0.17359027	0.38815665	1.190949	-0.045158112	0.38238931	1.2457864	-0.14614868	0.31158994	0.49300522	0.038288006	0.30837851	0.51020825	0.1706539	0.32877075	0.66345984	0.10515826	0.25532544	0.10098634	0.072156616	0.20180344	0.084908409	0.16437013	0.26048523	0.31002612	0.18396951	0.3815549	0.05485323	0.10668727
8812	44.46	0.15815805	0.039322296	0.12039702	0.20567975	0.92370752	0.14812379	0.096001671	0.97853546	0.19767024	-0.037202023	1.0100064	-0.026123684	0.09417028	0.96396448	-0.21315724	0.19882932	0.90715173	-0.16407626	0.40166348	1.2911855	-0.026813543	0.36541803	1.3939769	0.10256717	0.35433853	1.3947537	-0.17379274	0.38815341	1.1967025	-0.045010616	0.38215131	1.2513561	-0.14627632	0.31078854	0.49323294	0.038394314	0.30719235	0.51050204	0.17068513	0.32920889	0.66348395	0.10552052	0.25514894	0.10109861	0.072299995	0.20151297	0.084892029	0.16443321	0.25949747	0.31023053	0.18403223	0.38122336	0.055192554	0.10686954
8813	44.47	0.15804553	0.039254246	0.12036523	0.20833221	0.92693323	0.14812837	0.098295418	0.98081335	0.19744984	-0.034637466	1.0119983	-0.026457167	0.097114708	0.96639117	-0.21326538	0.20217075	0.91027716	-0.164065	0.40085349	1.2970199	-0.026738329	0.36336627	1.3995094	0.10270302	0.35276352	1.400011	-0.17399701	0.38812958	1.2023909	-0.044850967	0.38189194	1.2568538	-0.14638409	0.30999051	0.49343674	0.038465263	0.30604068	0.51079678	0.17067023	0.32967865	0.66348816	0.10579987	0.2549823	0.10120351	0.072435753	0.20123103	0.084880905	0.16448683	0.25852081	0.31043723	0.18406499	0.38090771	0.055518856	0.10705228
8814	44.48	0.15793974	0.039191753	0.12033101	0.21104047	0.9301297	0.14809557	0.10063595	0.98301581	0.19721196	-0.032041203	1.013897	-0.026807732	0.10009713	0.96875403	-0.21338736	0.20552463	0.91336676	-0.16407327	0.40001254	1.3027744	-0.026657904	0.36125583	1.4049478	0.10284383	0.35115491	1.4051702	-0.1742047	0.38809232	1.2080045	-0.044680912	0.38160513	1.2622683	-0.14647545	0.30920599	0.49362012	0.038499729	0.30493185	0.51109021	0.17060745	0.3301843	0.66347443	0.10599599	0.25482738	0.10129989	0.072564598	0.20095799	0.084874268	0.16453087	0.25756396	0.31064438	0.18406601	0.38061127	0.055825634	0.10723367
